HIERARCHY
ROOT hip
{
	OFFSET 0.000000 0.000000 0.000000 
	CHANNELS 6 Xposition Yposition Zposition Xrotation Zrotation Yrotation
	JOINT abdomen
	{
		OFFSET 0.000000 3.402643 0.000000 
		CHANNELS 3 Xrotation Zrotation Yrotation
		JOINT chest
		{
			OFFSET 0.000000 8.438565 -0.680529 
			CHANNELS 3 Xrotation Zrotation Yrotation
			JOINT neck
			{
				OFFSET 0.000000 10.207942 -0.272212 
				CHANNELS 3 Xrotation Zrotation Yrotation
				JOINT head
				{
					OFFSET 0.000000 3.130431 0.000000 
					CHANNELS 3 Xrotation Zrotation Yrotation
					End Site
					{
						OFFSET 0.000000 3.130435 0.000000 
					}
				}
			}
			JOINT lCollar
			{
				OFFSET 3.470700 6.669187 -0.816635 
				CHANNELS 3 Yrotation Zrotation Xrotation
				JOINT lShldr
				{
					OFFSET 3.198488 0.000000 0.000000 
					CHANNELS 3 Zrotation Yrotation Xrotation
					JOINT lForeArm
					{
						OFFSET 10.139888 0.000000 0.000000 
						CHANNELS 3 Yrotation Zrotation Xrotation
						JOINT lHand
						{
							OFFSET 8.370511 0.000000 0.000000 
							CHANNELS 3 Zrotation Yrotation Xrotation
							End Site
							{
								OFFSET 4.083176 0.000000 0.000000 
							}
						}
					}
				}
			}
			JOINT rCollar
			{
				OFFSET -3.470700 6.669187 -0.816635 
				CHANNELS 3 Yrotation Zrotation Xrotation
				JOINT rShldr
				{
					OFFSET -3.198488 0.000000 0.000000 
					CHANNELS 3 Zrotation Yrotation Xrotation
					JOINT rForeArm
					{
						OFFSET -10.139888 0.000000 0.000000 
						CHANNELS 3 Yrotation Zrotation Xrotation
						JOINT rHand
						{
							OFFSET -8.370511 0.000000 0.000000 
							CHANNELS 3 Zrotation Yrotation Xrotation
							End Site
							{
								OFFSET -4.083176 0.000000 0.000000 
							}
						}
					}
				}
			}
		}
	}
	JOINT lThigh
	{
		OFFSET 5.308129 -1.633274 1.361059 
		CHANNELS 3 Xrotation Zrotation Yrotation
		JOINT lShin
		{
			OFFSET -2.041588 -20.007561 0.000000 
			CHANNELS 3 Xrotation Zrotation Yrotation
			JOINT lFoot
			{
				OFFSET 0.000000 -19.190928 -1.224953 
				CHANNELS 3 Xrotation Yrotation Zrotation
				End Site
				{
					OFFSET 0.000000 -2.449906 4.627600 
				}
			}
		}
	}
	JOINT rThigh
	{
		OFFSET -5.308129 -1.633274 1.361059 
		CHANNELS 3 Xrotation Zrotation Yrotation
		JOINT rShin
		{
			OFFSET 2.041588 -20.007561 0.000000 
			CHANNELS 3 Xrotation Zrotation Yrotation
			JOINT rFoot
			{
				OFFSET 0.000000 -19.190928 -1.224953 
				CHANNELS 3 Xrotation Yrotation Zrotation
				End Site
				{
					OFFSET 0.000000 -2.449906 4.627600 
				}
			}
		}
	}
}
MOTION
Frames: 6
Frame Time: 0.016667
-4.385043 44.664608 5.053388 2.382810 -0.009757 111.982002 -16.516399 2.609030 8.437080 19.872801 -1.415920 4.343060 16.706499 -4.982720 16.017300 12.171300 4.304470 8.528800 2.000000 -2.000000 0.000000 93.573898 171.707001 -7.285360 41.445702 -0.317329 0.090551 0.046119 -0.021783 -144.723999 -2.000000 2.000000 0.000000 71.215897 -1.618250 -164.641998 -58.154800 0.286985 0.116142 -0.059238 -0.029352 -122.809998 -16.104923 2.881703 -26.096907 16.136969 2.616354 1.345071 -3.571117 -17.347239 -3.472964 -13.017537 0.663042 21.168245 34.979660 -3.253561 -2.366800 -18.877415 -11.040298 -3.780971 
-4.326538 44.761707 5.428070 1.855490 -0.302576 113.143997 -16.564100 2.711860 8.630850 19.853201 -1.660030 4.463730 16.692499 -5.565750 16.137300 12.237500 4.119950 8.614880 2.000000 -2.000000 0.000000 92.489601 170.399994 -7.913440 39.297298 -0.320650 0.086646 0.045820 -0.019478 -143.893997 -2.000000 2.000000 0.000000 71.988800 -3.800960 -166.718002 -56.484901 0.290338 0.113991 -0.058644 -0.026907 -123.709000 -16.547598 3.454844 -27.070477 15.612610 2.604600 1.302989 -4.583119 -14.679576 -3.514038 -13.133448 0.967470 19.683235 34.136669 -3.226368 -2.319791 -18.509405 -10.656380 -3.624254 
-4.226221 44.892487 5.759726 1.582190 -0.820000 114.478996 -16.697399 2.673010 8.694930 19.882500 -1.679570 4.492410 16.586599 -6.086430 16.378901 12.264400 3.916630 8.762740 2.000000 -2.000000 0.000000 -88.067596 11.190900 171.574997 37.598000 -0.323171 0.083471 0.045817 -0.019451 -143.884995 -2.000000 2.000000 0.000000 72.693199 -5.828520 -168.304993 -55.049301 0.293170 0.112064 -0.057984 -0.023972 -124.782997 -16.955807 3.735191 -27.068748 15.141261 2.518971 1.290942 -6.248737 -10.869059 -3.312938 -13.256285 1.113998 18.813114 33.280430 -3.234602 -2.272972 -18.127993 -11.162725 -3.750926 
-4.125913 45.023151 6.091393 1.299180 -1.337550 115.819000 -16.830099 2.637640 8.767970 19.911800 -1.699110 4.530830 16.481501 -6.597460 16.635201 12.291500 3.723000 8.922250 2.000000 -2.000000 0.000000 -88.644402 12.791300 171.044006 35.908600 -0.325583 0.080242 0.045814 -0.019424 -143.875000 -2.000000 2.000000 0.000000 73.446404 -7.846220 -169.921005 -53.613800 0.295953 0.110066 -0.057374 -0.020999 -125.866997 -17.430124 3.948208 -27.038750 14.756355 2.452043 1.290012 -7.946462 -7.096300 -3.005184 -13.298389 1.218979 17.963093 32.397072 -3.222444 -2.240724 -17.789631 -11.651452 -3.890518 
-4.040492 45.122692 6.389909 1.318890 -1.620660 117.287003 -16.918200 2.484200 8.774840 19.706600 -1.796680 4.518830 16.188700 -6.620350 16.901199 12.232900 3.733340 9.056550 2.000000 -2.000000 0.000000 -88.918404 14.430000 170.238998 34.814800 -0.327093 0.078113 0.045989 -0.020807 -144.373001 -2.000000 2.000000 0.000000 74.170303 -9.581160 -171.343002 -52.695801 0.297706 0.108753 -0.057043 -0.019252 -126.501999 -17.523443 4.020380 -25.562227 14.363153 2.372859 1.278108 -8.276462 -3.962354 -2.334241 -13.110165 1.285141 17.507566 31.901566 -3.251152 -2.195358 -17.741337 -12.635896 -4.183404 
-3.955081 45.222225 6.688426 1.328870 -1.913550 118.753998 -17.015499 2.334330 8.791440 19.511101 -1.894220 4.507200 15.886100 -6.651990 17.175400 12.184100 3.743570 9.191470 2.000000 -2.000000 0.000000 -89.221901 16.058901 169.425003 33.721100 -0.328563 0.075957 0.046179 -0.022216 -144.880997 -2.000000 2.000000 0.000000 -105.056999 -168.694000 7.207630 -51.787601 0.299419 0.107426 -0.056736 -0.017529 -127.126999 -17.582100 4.108398 -24.080124 13.913079 2.283367 1.286594 -8.636395 -0.868999 -1.643319 -12.931434 1.347453 17.041931 31.390617 -3.245254 -2.170288 -17.686695 -13.580617 -4.498368 
